<svg width="30" height="37" viewBox="0 0 30 37" fill="none" xmlns="http://www.w3.org/2000/svg">
<path d="M15 0L0 6.66667V16.6667C0 25.9167 6.4 34.5667 15 36.6667C23.6 34.5667 30 25.9167 30 16.6667V6.66667L15 0ZM15 6.5C15.9889 6.5 16.9556 6.79324 17.7779 7.34265C18.6001 7.89206 19.241 8.67295 19.6194 9.58658C19.9978 10.5002 20.0969 11.5055 19.9039 12.4754C19.711 13.4454 19.2348 14.3363 18.5355 15.0355C17.8363 15.7348 16.9454 16.211 15.9755 16.4039C15.0055 16.5969 14.0002 16.4978 13.0866 16.1194C12.173 15.741 11.3921 15.1001 10.8427 14.2778C10.2932 13.4556 10 12.4889 10 11.5C10 10.1739 10.5268 8.90215 11.4645 7.96447C12.4021 7.02678 13.6739 6.5 15 6.5ZM15 19.6667C18.3333 19.6667 25 21.4833 25 24.8C23.9054 26.4502 22.4194 27.8039 20.6745 28.7403C18.9297 29.6767 16.9802 30.1667 15 30.1667C13.0198 30.1667 11.0703 29.6767 9.32545 28.7403C7.58061 27.8039 6.09462 26.4502 5 24.8C5 21.4833 11.6667 19.6667 15 19.6667Z" fill="white"/>
</svg>
