<svg width="34" height="42" viewBox="0 0 34 42" fill="none" xmlns="http://www.w3.org/2000/svg">
<path id="eosIconsAdmin0" d="M17.4061 2.08619L17 1.90568L16.5939 2.08619L1.59386 8.75285L1 9.01679V9.66667V19.6667C1 29.3361 7.67594 38.4192 16.7628 40.6381L17 40.696L17.2372 40.6381C26.3241 38.4192 33 29.3361 33 19.6667V9.66667V9.01679L32.4061 8.75285L17.4061 2.08619ZM17 10.5C17.7911 10.5 18.5645 10.7346 19.2223 11.1741C19.8801 11.6136 20.3928 12.2384 20.6955 12.9693C20.9983 13.7002 21.0775 14.5044 20.9231 15.2804C20.7688 16.0563 20.3878 16.769 19.8284 17.3284C19.269 17.8878 18.5563 18.2688 17.7804 18.4231C17.0044 18.5775 16.2002 18.4983 15.4693 18.1955C14.7384 17.8928 14.1136 17.3801 13.6741 16.7223C13.2346 16.0645 13 15.2911 13 14.5C13 13.4391 13.4214 12.4217 14.1716 11.6716C14.9217 10.9214 15.9391 10.5 17 10.5ZM17 23.6667C18.5307 23.6667 20.9002 24.0932 22.8651 24.9125C23.8458 25.3215 24.6639 25.8032 25.2212 26.3272C25.6669 26.7463 25.9003 27.146 25.9739 27.5283C24.9917 28.9139 23.7009 30.0545 22.2017 30.8591C20.6022 31.7175 18.8152 32.1667 17 32.1667C15.1848 32.1667 13.3978 31.7175 11.7983 30.8591C10.2991 30.0545 9.00832 28.9139 8.02609 27.5283C8.09968 27.146 8.33314 26.7463 8.77881 26.3272C9.33606 25.8032 10.1542 25.3215 11.1349 24.9125C13.0998 24.0932 15.4693 23.6667 17 23.6667Z" fill="white" stroke="#2E3669" stroke-width="2"/>
</svg>
