<svg width="144" height="82" viewBox="0 0 144 82" fill="none" xmlns="http://www.w3.org/2000/svg">
<g filter="url(#filter0_i_24_214)">
<path d="M70 4.80411L127 2L121.805 6L70 4.80411Z" fill="#5D7D70"/>
<path d="M7 2.86833L65 8.73438e-08L60.6549 4L7 2.86833Z" fill="#C35700"/>
<path d="M73 79.1959L128 82L122.987 78L73 79.1959Z" fill="#4C79B0"/>
<path d="M68 14L117.5 11L112.805 15.227L68 14Z" fill="#5D7D70"/>
<path d="M69 68.1611L117 71L112.447 67L69 68.1611Z" fill="#4C79B0"/>
<path d="M74.5 24.5L108 22L108 26.5L74.5 24.5Z" fill="#5D7D70"/>
<path d="M75 58.2222L108 61L108 56L75 58.2222Z" fill="#4C79B0"/>
<path d="M87.5 36.0311L113 34.5L124 37L87.5 36.0311Z" fill="#5D7D70"/>
<path d="M88 45.9689L113 47.5L123 45L88 45.9689Z" fill="#4C79B0"/>
<path d="M7 79.1317L66 82L61.5799 78L7 79.1317Z" fill="#C35700"/>
<path d="M1.07483e-08 13.6943L59.6797 11L61 15L1.07483e-08 13.6943Z" fill="#C35700"/>
<path d="M1.07483e-08 68.3057L59.6797 71L61 67L1.07483e-08 68.3057Z" fill="#C35700"/>
<path d="M5 25.3679L64.9351 22L70 27L5 25.3679Z" fill="#C35700"/>
<path d="M16 36.6943L76.8571 34L82 38L16 36.6943Z" fill="#C35700"/>
<path d="M16 46.6323L75.013 50.0001L80 45.0001L16 46.6323Z" fill="#C35700"/>
<path d="M5 58.6323L64.013 62.0001L69 57.0001L5 58.6323Z" fill="#C35700"/>
<path d="M89.7517 40.8817C82.0857 33.2857 74.4004 25.706 66.6957 18.1426C65.2281 16.7011 64.2687 15.5692 63.8175 14.7468C60.8813 9.41467 63.8921 2.76723 69.817 1.30758C72.1962 0.722988 74.3995 0.971713 76.4269 2.05375C77.3182 2.52941 78.6781 3.66863 80.5066 5.47141C90.3345 15.1607 100.162 24.8509 109.99 34.542C112.716 37.2326 113.41 42.0064 111.529 45.3723C111.068 46.1984 109.874 47.5618 107.946 49.4626C98.4977 58.7725 89.051 68.0851 79.6062 77.4004C78.3429 78.6476 77.3163 79.4773 76.5263 79.8894C69.6292 83.4895 61.7072 77.8279 62.801 70.2083C63.0902 68.1931 64.0449 66.393 65.6654 64.8081C73.7181 56.9307 81.7469 49.0296 89.7517 41.105C89.8253 41.0306 89.8253 40.9561 89.7517 40.8817Z" fill="#C35700"/>
<path d="M137.407 1.53199C144.024 3.64178 145.879 12.021 141.112 16.8531C139.035 18.9566 134.579 23.3186 127.742 29.9393C126.373 31.2677 125.274 32.1452 124.448 32.5717C122.672 33.4937 120.756 33.7968 118.7 33.481C112.213 32.4846 108.686 25.4692 111.862 19.7959C112.303 19.0101 113.117 18.0328 114.303 16.864C118.096 13.1326 121.89 9.40127 125.685 5.6699C127.597 3.78969 128.989 2.60912 129.86 2.12818C132.16 0.859583 134.676 0.660854 137.407 1.53199Z" fill="#5D7D70"/>
<path d="M110.895 59.6407C108.967 50.3524 120.346 44.6317 127.05 51.279C131.412 55.6016 135.776 59.9214 140.144 64.2385C141.416 65.4958 142.266 66.5188 142.693 67.3073C144.159 70.0137 144.151 73.4777 142.616 76.1868C140.072 80.6729 134.09 82.4389 129.497 79.6862C128.872 79.312 128.061 78.6333 127.064 77.6503C122.589 73.2424 118.101 68.8481 113.599 64.4674C112.178 63.0829 111.276 61.474 110.895 59.6407Z" fill="#4C79B0"/>
</g>
<defs>
<filter id="filter0_i_24_214" x="0" y="0" width="145.78" height="84" filterUnits="userSpaceOnUse" color-interpolation-filters="sRGB">
<feFlood flood-opacity="0" result="BackgroundImageFix"/>
<feBlend mode="normal" in="SourceGraphic" in2="BackgroundImageFix" result="shape"/>
<feColorMatrix in="SourceAlpha" type="matrix" values="0 0 0 0 0 0 0 0 0 0 0 0 0 0 0 0 0 0 127 0" result="hardAlpha"/>
<feOffset dx="2" dy="2"/>
<feGaussianBlur stdDeviation="5"/>
<feComposite in2="hardAlpha" operator="arithmetic" k2="-1" k3="1"/>
<feColorMatrix type="matrix" values="0 0 0 0 0 0 0 0 0 0 0 0 0 0 0 0 0 0 0.25 0"/>
<feBlend mode="normal" in2="shape" result="effect1_innerShadow_24_214"/>
</filter>
</defs>
</svg>
